<svg xmlns="http://www.w3.org/2000/svg" width="64" height="64" viewBox="0 0 64 64">
    <g fill="#D93A2F" fill-rule="nonzero">
        <path d="M42 18c-.938 0-1.895.32-2.672.977A3.81 3.81 0 0 0 38 21.898v21.415l-3.344-3.868-.023-.023c-1.68-1.809-4.551-1.797-6.32-.043-1.801 1.687-1.786 4.562-.02 6.328l-.082-.094L39.8 60.5c1.687 2.25 4.304 3.5 7.101 3.5H55c4.945 0 9-4.055 9-9V37c0-.746-.023-1.879-.547-2.96C62.926 32.956 61.711 32 60 32c-.941 0-1.691.316-2.297.758-.152-.524-.348-1.012-.656-1.418C56.34 30.426 55.203 30 54 30c-1.113 0-1.98.41-2.64.973C50.694 29.867 49.565 29 48 29c-.777 0-1.422.254-2 .598V22c0-1.266-.543-2.328-1.316-3.004A4.075 4.075 0 0 0 42 18zm0 2c.465 0 .996.18 1.371.504S44 21.266 44 22v15c-.004.36.184.695.496.879.313.18.695.18 1.008 0 .312-.184.5-.52.496-.879v-3.96-.024c.004-.008.004-.012 0-.016 0-.875.664-2 2-2 1.332 0 1.992 1.11 2 1.984V36a.999.999 0 0 0 1 .984.999.999 0 0 0 1-.984v-1.96V34c0-.535.145-1.059.418-1.398.273-.34.664-.602 1.582-.602.8 0 1.164.176 1.457.563.297.382.543 1.156.543 2.437v2a1.163 1.163 0 0 0 .129.48c.02.028.035.055.059.083a.951.951 0 0 0 .562.39.96.96 0 0 0 .395.024c.097-.016.195-.043.289-.086.027-.016.058-.032.086-.047a.958.958 0 0 0 .16-.121l.07-.07c.11-.13.188-.278.227-.442.007-.031.011-.066.02-.098.003-.031.003-.066.003-.097.004-.008.004-.012 0-.016 0-.652.074-1.52.352-2.09.277-.566.558-.91 1.648-.91 1.094 0 1.375.344 1.652.91.278.57.348 1.438.348 2.09v18c0 3.855-3.145 7-7 7h-8.098c-2.207 0-4.191-.95-5.5-2.7-.004-.003-.007-.01-.011-.015L29.789 44.387a1.005 1.005 0 0 0-.082-.094c-1.031-1.031-1.016-2.543-.027-3.461l.027-.023c1.027-1.032 2.543-1.016 3.461-.028l5.078 5.875A1 1 0 0 0 40 46V21.898c0-.668.246-1.078.625-1.398.375-.32.914-.5 1.375-.5z"/>
        <path d="M50.523 29.954a3.685 3.685 0 0 0-1.85-.898C52.204 24.644 54 20.09 54 14.922 54 7.774 48.166 2 40.937 2a12.983 12.983 0 0 0-10.843 5.794L28 10.897l-.829-1.228-1.268-1.878A12.981 12.981 0 0 0 15.063 2C7.83 2 2 7.772 2 14.922c0 8.785 5.19 15.797 15.272 23.353 1.736 1.3 8.301 5.856 10.728 7.645l.286-.21 1.23 1.579c-.388.282-.697.512-.9.67l-.616.483-.616-.483c-1.557-1.218-9.346-6.611-11.31-8.084C5.533 31.978 0 24.5 0 14.922 0 6.662 6.73 0 15.063 0c5.1 0 9.727 2.53 12.5 6.675l.437.647.435-.644A14.98 14.98 0 0 1 40.938 0C49.264 0 56 6.665 56 14.922c0 5.553-1.86 10.4-5.477 15.032zM38 41.268l-1.096.778-1.314-1.52c.938-.664 1.78-1.263 2.41-1.718v2.46zm-9.708 4.438l.001.001a4.269 4.269 0 0 1-.001-.001z"/>
    </g>
</svg>
