<svg xmlns="http://www.w3.org/2000/svg" width="64" height="64" viewBox="0 0 64 64">
    <g fill="#D93A2F" fill-rule="evenodd">
        <path fill-rule="nonzero" d="M38 49v-2h18V35H38v-2h18V16H38v-2h18v-3a2 2 0 0 0-2-2H38V7h16a4 4 0 0 1 4 4v20h2v-6h2a2 2 0 0 1 2 2v4a2 2 0 0 1-2 2h-4v15a1 1 0 0 1-1 1h-2v5h-5v-5H38zm0-39h11.5a1.5 1.5 0 0 1 0 3H38v-3zm14.5 30a1.5 1.5 0 1 1 0-3 1.5 1.5 0 0 1 0 3zm-3 3a1.5 1.5 0 1 1 0-3 1.5 1.5 0 0 1 0 3zM5 0h28a5 5 0 0 1 5 5v54a5 5 0 0 1-5 5H5a5 5 0 0 1-5-5V5a5 5 0 0 1 5-5zm0 2a3 3 0 0 0-3 3v54a3 3 0 0 0 3 3h28a3 3 0 0 0 3-3V5a3 3 0 0 0-3-3H5zm1 2h26a2 2 0 0 1 2 2v44a2 2 0 0 1-2 2H6a2 2 0 0 1-2-2V6a2 2 0 0 1 2-2zm0 2v44h26V6H6zm13 55a4 4 0 1 1 0-8 4 4 0 0 1 0 8zm0-2a2 2 0 1 0 0-4 2 2 0 0 0 0 4z"/>
        <path d="M32 19H16v12h16v2H16v8h16v2H20v3h-4v-3h-1a1 1 0 0 1-1-1V32h-3a2 2 0 0 1-2-2v-3a2 2 0 0 1 2-2h1v5h2V14a3 3 0 0 1 3-3h15v2H17a1 1 0 0 0-1 1v3h16v2zm0-5v2H21a1 1 0 0 1 0-2h11zM18 36a1 1 0 1 1 0-2 1 1 0 0 1 0 2zm2 2a1 1 0 1 1 0-2 1 1 0 0 1 0 2zm7.5-.5a1 1 0 1 1 0-2 1 1 0 0 1 0 2zm1.287 2.803a.5.5 0 0 1-.96-.28c.044-.152.118-.354.243-.68.02-.05.272-.695.35-.9.047-.122.09-.236.13-.345.292-.786.45-1.34.45-1.598a1.5 1.5 0 0 0-3 0c0 .412.16.99.422 1.491a.5.5 0 0 1-.886.463c-.333-.636-.536-1.37-.536-1.954a2.5 2.5 0 1 1 5 0c0 .424-.176 1.039-.511 1.946l-.135.356-.35.902a8.645 8.645 0 0 0-.217.599z"/>
    </g>
</svg>
