<svg xmlns="http://www.w3.org/2000/svg" width="64" height="64" viewBox="0 0 64 64">
    <g fill="#D93A2F" fill-rule="evenodd">
        <path fill-rule="nonzero" d="M17 0h30c9.389 0 17 7.611 17 17v30c0 9.389-7.611 17-17 17H17C7.611 64 0 56.389 0 47V17C0 7.611 7.611 0 17 0zm0 2C8.716 2 2 8.716 2 17v30c0 8.284 6.716 15 15 15h30c8.284 0 15-6.716 15-15V17c0-8.284-6.716-15-15-15H17z"/>
        <path fill-rule="nonzero" d="M32 46c7.732 0 14-6.268 14-14s-6.268-14-14-14-14 6.268-14 14 6.268 14 14 14zm0-2c-6.627 0-12-5.373-12-12s5.373-12 12-12 12 5.373 12 12-5.373 12-12 12z"/>
        <circle cx="49.5" cy="14.5" r="2.5"/>
    </g>
</svg>
