<svg xmlns="http://www.w3.org/2000/svg" width="64" height="64" viewBox="0 0 64 64">
    <g fill="#D93A2F" fill-rule="nonzero">
        <path d="M33.5 5C20.62 5 10.147 15.39 10.006 28.238v.024C10.146 40.833 20.397 51 33 51c8.066 0 15.175-4.159 19.28-10.453a1 1 0 0 0-1.676-1.094C46.856 45.201 40.38 49 33 49c-11.525 0-20.857-9.257-20.992-20.75C12.143 16.481 21.698 7 33.5 7c9.98 0 18.072 7.877 18.463 17.76a17.648 17.648 0 0 1-4.34 10.832C45.14 38.429 42.033 40 40 40a1.982 1.982 0 0 1-1.994-1.984c.009-.103.204-2.228 1.146-4.702a1 1 0 0 0 .008-.027l6.768-16.916a1 1 0 1 0-1.856-.742l-1.343 3.36c-.61-1.361-1.452-2.439-2.504-3.227C38.524 14.488 36.37 14 34 14c-2.803 0-6.409 1.748-9.477 4.896C21.456 22.045 19 26.68 19 32.5c0 5.235 4.265 9.5 9.5 9.5 3.05 0 5.284-1.281 6.84-2.838.25-.25.48-.507.701-.767C36.244 40.406 37.938 42 40 42c2.967 0 6.36-1.929 9.127-5.092 2.42-2.766 4.335-6.538 4.777-10.965A1 1 0 0 0 54 25.5c0-.33-.01-.658-.025-.984.004-.174.025-.34.025-.516a1 1 0 0 0-.094-.432C52.93 13.162 44.16 5 33.5 5zm.5 11c2.097 0 3.778.429 5.025 1.363 1.201.9 2.082 2.307 2.532 4.557l-4.258 10.642a1 1 0 0 0-.016.04l-.36.896a1 1 0 0 0-.05.078c-.785 1.256-1.659 2.883-2.947 4.172C32.637 39.038 31.012 40 28.5 40a7.486 7.486 0 0 1-7.5-7.5c0-5.262 2.196-9.378 4.955-12.209C28.714 17.46 32.11 16 34 16z"/>
        <path d="M11 56C4.925 56 0 51.075 0 45V11C0 4.925 4.925 0 11 0h42c6.075 0 11 4.925 11 11v34c0 6.075-4.925 11-11 11H42.315L32 63.22 21.685 56H11zm30.685-2H53a9 9 0 0 0 9-9V11a9 9 0 0 0-9-9H11a9 9 0 0 0-9 9v34a9 9 0 0 0 9 9h11.315L32 60.78 41.685 54z"/>
    </g>
</svg>
