<svg xmlns="http://www.w3.org/2000/svg" width="22" height="22" viewBox="0 0 22 22">
    <path fill="#D23830" fill-rule="nonzero" d="M6.469 0C2.918 0 0 2.914 0 6.469v9.062C0 19.082 2.914 22 6.469 22h9.062C19.082 22 22 19.086 22 15.531V6.47C22 2.918 19.086 0 15.531 0H6.47zm0 2h9.062A4.463 4.463 0 0 1 20 6.469v9.062A4.463 4.463 0 0 1 15.531 20H6.47A4.463 4.463 0 0 1 2 15.531V6.47A4.463 4.463 0 0 1 6.469 2zm10.437 2.188a.902.902 0 0 0-.906.906c0 .504.402.906.906.906a.902.902 0 0 0 .907-.906.902.902 0 0 0-.907-.907zM11 5c-3.3 0-6 2.7-6 6s2.7 6 6 6 6-2.7 6-6-2.7-6-6-6zm0 2c2.223 0 4 1.777 4 4s-1.777 4-4 4-4-1.777-4-4 1.777-4 4-4z"/>
</svg>
