<?xml version="1.0" encoding="UTF-8" standalone="no"?><svg width="304" height="236" viewBox="0 0 304 236" xmlns="http://www.w3.org/2000/svg" xmlns:xlink="http://www.w3.org/1999/xlink"><svg width="24" height="24" viewBox="0 0 24 24" id="svg--close-icon" x="237" y="97"><title>73A8E6D9-384D-419A-BF71-6D62D0DC1535</title><path d="M11.9 9.073L3.418.59A1.996 1.996 0 0 0 .587.586a1.996 1.996 0 0 0 .002 2.83L9.072 11.9.59 20.386a1.996 1.996 0 0 0-.003 2.83c.782.78 2.043.785 2.83-.002L11.9 14.73l8.485 8.483c.787.787 2.05.783 2.83.002a1.996 1.996 0 0 0 0-2.83L14.73 11.9l8.484-8.483a1.996 1.996 0 0 0 0-2.83 1.996 1.996 0 0 0-2.83.002l-8.483 8.483z" fill="#D22630" fill-rule="evenodd"/></svg><svg width="46" height="46" viewBox="0 0 46 46" id="svg--close-icon-popup" x="53" y="170"><title>close icon</title><path d="M28.657 23L44.21 7.448a4.004 4.004 0 0 0 .003-5.66 4.006 4.006 0 0 0-5.66.003L23 17.344 7.448 1.79a4.006 4.006 0 0 0-5.66-.003 4.004 4.004 0 0 0 .003 5.66L17.344 23 1.79 38.552a4.004 4.004 0 0 0-.003 5.66 4.006 4.006 0 0 0 5.66-.003L23 28.656 38.552 44.21a4.006 4.006 0 0 0 5.66.003 4.004 4.004 0 0 0-.003-5.66L28.656 23z" fill="#D22630" fill-rule="evenodd"/></svg><svg width="65" height="81" viewBox="0 0 65 81" id="svg--deptrans-logo" x="78" y="88"><title>AC0D68EB-DA80-4ECA-8B3F-216327F7249B</title><g fill="#D9232E" fill-rule="evenodd"><g transform="translate(10.72)"><path d="M21.73 12.954c-4.97 0-8.997 4.056-8.997 9.03 0 5.004 4.027 9.06 8.997 9.06 4.937 0 8.997-4.056 8.997-9.06 0-4.974-4.06-9.03-8.997-9.03zm0 14.557c-3.02 0-5.49-2.485-5.49-5.527a5.495 5.495 0 0 1 5.49-5.496c3.02 0 5.49 2.453 5.49 5.496 0 3.042-2.47 5.528-5.49 5.528z"/><path d="M32.513 32.876l.033-.033c2.76-2.78 4.45-6.608 4.45-10.86 0-8.473-6.854-15.375-15.266-15.375-8.413 0-15.266 6.902-15.266 15.375 0 4.252 1.72 8.112 4.45 10.86.324.327.78.523 1.266.523.975 0 1.754-.785 1.754-1.766 0-.49-.227-.95-.552-1.276-2.11-2.126-3.41-5.07-3.41-8.34 0-6.544 5.262-11.843 11.758-11.843 6.496 0 11.758 5.3 11.758 11.843 0 3.27-1.3 6.248-3.443 8.374L14.78 45.732l2.5 2.486 15.233-15.342z"/><path d="M43.297 21.983C43.297 10.01 33.65.263 21.73.263S.162 10.01.162 21.982c0 5.986 2.404 11.45 6.302 15.342a1.73 1.73 0 0 0 1.266.523c.942 0 1.754-.785 1.754-1.766 0-.49-.227-.95-.552-1.276A18.163 18.163 0 0 1 3.67 21.983c0-10.01 8.088-18.188 18.06-18.188 9.97 0 18.06 8.178 18.06 18.188 0 5.037-2.015 9.584-5.295 12.856L19.23 50.212l2.5 2.486 15.266-15.375a21.71 21.71 0 0 0 6.3-15.342z"/></g><g transform="translate(0 57.86)"><path d="M0 8.004L1.515.032h1.12L4.84 5.157 7.147.032h1.12L9.65 8.004H8.034l-.757-4.872-2.24 5H4.61L2.47 3.194l-.856 4.81zM13.337 2.752c.428 0 .823.064 1.186.19.362.127.69.285.988.538.264.253.462.538.626.886.165.348.264.696.264 1.107 0 .41-.1.79-.264 1.14-.164.315-.362.632-.658.853-.264.253-.593.41-.955.538-.363.127-.758.19-1.186.19-.428 0-.823-.063-1.185-.19-.363-.127-.692-.285-.955-.538a2.873 2.873 0 0 1-.66-.854c-.164-.348-.23-.728-.23-1.14 0-.41.066-.758.23-1.106.166-.348.396-.633.66-.886.263-.253.592-.41.955-.538.362-.126.757-.19 1.185-.19zm0 4.145c.428 0 .79-.127 1.087-.412.263-.253.428-.6.428-1.012 0-.41-.165-.728-.428-1.012-.296-.284-.66-.41-1.087-.442-.428 0-.79.158-1.054.443a1.31 1.31 0 0 0-.428 1.013c0 .41.132.76.428 1.044.264.253.626.41 1.054.38zM21.57 3.07v1.39a2.864 2.864 0 0 0-.527-.316c-.23-.063-.428-.126-.69-.126-.463 0-.825.158-1.088.443-.297.285-.395.602-.395 1.013 0 .41.13.76.428 1.044.296.253.658.38 1.12.38.197 0 .395-.032.625-.095.198-.063.362-.19.527-.348v1.423a3.98 3.98 0 0 1-.66.222c-.23.062-.46.094-.69.094a4.637 4.637 0 0 1-1.153-.222 2.905 2.905 0 0 1-.922-.537c-.263-.222-.46-.507-.626-.855a2.852 2.852 0 0 1-.198-1.075c0-.443.066-.854.23-1.202.165-.348.396-.633.692-.886.263-.222.56-.38.89-.506a3.44 3.44 0 0 1 1.02-.158c.263 0 .527.032.757.095.232.032.462.127.66.222zM22.92 2.91h1.482v1.994l2.01-1.993h1.843L25.85 5.19l2.537 2.816h-1.91l-1.844-2.088-.23.22v1.868H22.92zM31.416 2.752c.43 0 .824.064 1.186.19.362.127.692.285.988.538.263.253.46.538.626.886.164.348.263.696.263 1.107 0 .41-.1.79-.264 1.14-.165.315-.363.632-.626.853-.296.253-.626.41-.988.538-.362.127-.757.19-1.186.19-.428 0-.823-.063-1.185-.19a2.835 2.835 0 0 1-.954-.538 2.873 2.873 0 0 1-.66-.854c-.163-.348-.23-.728-.23-1.14 0-.41.067-.758.23-1.106.166-.348.396-.633.66-.886.296-.253.593-.41.955-.538.363-.126.758-.19 1.186-.19zm0 4.145c.43 0 .79-.127 1.087-.412.264-.253.428-.6.428-1.012 0-.41-.163-.728-.427-1.012-.296-.284-.658-.41-1.087-.442-.428 0-.79.158-1.053.443a1.31 1.31 0 0 0-.428 1.013c0 .41.13.76.428 1.044.263.253.625.41 1.053.38zM35.533 2.91h2.338c.33 0 .56.032.758.095.198.032.363.127.527.222.132.126.264.253.363.443.098.158.13.348.13.57 0 .22-.065.41-.196.6-.132.19-.297.348-.527.443.13.032.23.064.362.127.132.063.23.126.33.19a1.322 1.322 0 0 1 .394.95c0 .252-.03.473-.13.663-.1.19-.264.348-.428.475-.132.126-.33.19-.527.253-.198.064-.428.064-.66.064h-2.732V2.91zm1.482 2.025H37.937a.726.726 0 0 0 .164-.095c.067-.03.133-.063.166-.126s.033-.127.033-.222c0-.063 0-.126-.034-.19-.033-.063-.066-.126-.132-.158a.257.257 0 0 0-.164-.063c-.033 0-.132-.03-.264-.03h-.69v.885zm0 1.962h.724c.13 0 .23-.032.33-.032.064-.032.163-.063.23-.095.032-.063.098-.095.13-.19.034-.063.034-.158.034-.22 0-.096 0-.16-.033-.223-.032-.063-.098-.094-.13-.158a.49.49 0 0 0-.23-.064c-.1-.032-.2-.032-.298-.063h-.757v1.044zM45.116 3.07v1.39c-.165-.126-.362-.22-.56-.316a2.205 2.205 0 0 0-.66-.126c-.493 0-.855.158-1.118.443-.264.285-.395.602-.395 1.013 0 .41.164.76.428 1.044.297.253.66.38 1.12.38.23 0 .428-.032.626-.095s.395-.19.56-.348v1.423c-.23.095-.428.16-.66.222-.23.062-.46.094-.723.094a4.637 4.637 0 0 1-1.153-.222 2.433 2.433 0 0 1-.89-.537 2.098 2.098 0 0 1-.625-.855c-.164-.316-.23-.696-.23-1.075 0-.443.1-.854.263-1.202.165-.348.362-.633.66-.886.262-.222.56-.38.888-.506.33-.094.66-.158 1.02-.158.264 0 .528.032.758.095.23.032.46.127.692.222zM46.367 2.91h1.482v1.994l1.975-1.993h1.877L49.298 5.19l2.536 2.816h-1.91L48.08 5.916l-.23.22v1.868h-1.483zM52.558 2.91h1.515v3.164L56.51 2.91h1.515v5.094H56.51V4.872l-2.437 3.132h-1.515zM59.54 2.91h1.482v3.164l2.47-3.163h1.48v5.094h-1.48V4.872l-2.47 3.132H59.54V2.91zM63.294.38l.955.443c-.133.38-.396.696-.76.917-.36.19-.79.285-1.25.285a2.45 2.45 0 0 1-1.25-.317 1.573 1.573 0 0 1-.76-.885l.99-.443c.032.22.164.38.36.537.2.127.397.19.66.19.264 0 .494-.063.692-.19.164-.158.296-.316.362-.537z"/><g transform="translate(4.095 11.972)"><path d="M6.147 1.934H4.303V8.45h-1.58V1.935H.877V.604h5.27zM7.662 7.786v3.385H6.18V3.358h1.482v.665c.197-.254.428-.475.724-.602.297-.158.626-.22 1.02-.22.76 0 1.384.252 1.878.79.494.506.725 1.14.725 1.898 0 .79-.232 1.455-.726 1.962-.494.506-1.152.76-1.91.76-.362 0-.69-.064-.955-.19a1.792 1.792 0 0 1-.758-.634zM8.98 4.464c-.43 0-.79.16-1.055.412-.263.284-.428.632-.395 1.044 0 .41.132.76.395 1.012.297.285.626.41 1.054.41.427 0 .79-.125 1.053-.41.296-.253.428-.6.428-1.012 0-.412-.13-.76-.427-1.013a1.395 1.395 0 0 0-1.054-.443zM17.245 4.022v-.665h1.482V8.45h-1.482v-.664c-.198.285-.428.506-.725.633-.263.126-.56.19-.922.19-.79 0-1.45-.254-1.943-.76a2.75 2.75 0 0 1-.757-1.93c0-.79.23-1.424.724-1.93.494-.538 1.12-.79 1.91-.79.363 0 .725.062.988.22.297.127.527.348.725.602zm-1.317.442c-.46 0-.79.16-1.087.412a1.48 1.48 0 0 0-.394 1.044c0 .41.13.76.395 1.012.297.285.627.41 1.088.41.428 0 .757-.125 1.02-.41.297-.253.43-.6.43-1.012 0-.412-.133-.76-.397-1.044-.295-.253-.624-.412-1.052-.412zM20.11 8.45V3.358h1.515V5.16H23.7V3.357h1.514V8.45H23.7V6.395h-2.075V8.45zM30.615 3.515v1.392a1.947 1.947 0 0 0-.56-.316c-.197-.094-.395-.126-.658-.126-.462 0-.857.16-1.12.443-.264.253-.395.6-.362.98 0 .444.13.792.428 1.045.296.285.658.41 1.12.41.197 0 .395-.03.592-.094.198-.094.395-.19.56-.348v1.392c-.198.127-.428.19-.66.254-.23.063-.46.063-.69.063-.428 0-.79-.064-1.153-.19a2.905 2.905 0 0 1-.922-.54c-.263-.22-.46-.505-.626-.853a2.903 2.903 0 0 1-.197-1.107c0-.412.066-.823.23-1.17.165-.35.396-.634.692-.887.262-.22.526-.38.888-.506a3.44 3.44 0 0 1 1.02-.158c.264 0 .528.03.758.062.23.064.46.127.66.253zM31.9 3.357h5.038V8.45h-1.515V4.59H33.38v3.86H31.9zM41.02 3.2c.43 0 .792.062 1.154.19.395.125.69.284.988.537.263.22.494.537.658.885.165.317.23.696.23 1.108 0 .41-.065.79-.23 1.107a3.013 3.013 0 0 1-.658.886c-.297.22-.593.41-.988.538-.33.127-.725.16-1.153.16-.427 0-.822-.033-1.184-.16a3.075 3.075 0 0 1-.955-.537 2.532 2.532 0 0 1-.658-.886 2.402 2.402 0 0 1-.263-1.107c0-.412.097-.79.262-1.108.165-.348.362-.664.66-.885.262-.253.59-.412.954-.538.362-.128.757-.19 1.185-.19zm0 4.143c.43 0 .792-.126 1.055-.41.296-.286.428-.602.428-1.013 0-.412-.132-.728-.428-1.013a1.395 1.395 0 0 0-1.054-.443c-.427 0-.79.16-1.085.443a1.38 1.38 0 0 0-.43 1.013c0 .41.166.727.43 1.012.296.285.658.443 1.086.41zM46.62 7.786v3.385h-1.515V3.358h1.515v.665c.164-.254.428-.475.69-.602.297-.158.66-.22 1.022-.22.79 0 1.416.252 1.91.79.46.506.724 1.14.724 1.93 0 .76-.263 1.423-.757 1.93-.495.506-1.12.76-1.91.76-.33 0-.66-.064-.956-.19-.296-.128-.527-.35-.724-.634zm1.317-3.322c-.428 0-.79.16-1.054.412-.296.284-.428.632-.428 1.044 0 .41.132.76.428 1.012.263.285.626.41 1.054.41.428 0 .79-.125 1.054-.41a1.4 1.4 0 0 0 .43-1.044c0-.38-.133-.728-.43-.98a1.395 1.395 0 0 0-1.053-.444zM55.906 4.59h-1.45v3.86h-1.514V4.59H51.46V3.358h4.446z"/></g></g></g></svg><svg width="35" height="35" viewBox="0 0 35 35" id="svg--fb-red" x="269"><title>0D3BBA48-F5E0-44AD-BFA7-E5002549721D</title><path d="M17.378 0C7.796 0 0 7.796 0 17.378s7.796 17.378 17.378 17.378 17.378-7.796 17.378-17.378S26.96 0 17.378 0zM21.7 17.99h-2.827v10.077h-4.19V17.99h-1.99v-3.562h1.99v-2.303c0-1.65.784-4.228 4.228-4.228l3.106.012v3.456h-2.254c-.366 0-.888.183-.888.97v2.093h3.192l-.366 3.56z" fill="#D9232E" fill-rule="evenodd"/></svg><svg width="85" height="85" viewBox="0 0 85 85" id="svg--how-to-join-icon-first" x="152"><title>03375040-55F7-46C6-A710-EFF783001998</title><g fill="#D22630" fill-rule="evenodd"><path d="M56.254 59.35L85 19.95 73.528 12l-28.71 40.177-.107.04-.048.18-.45.628.235.152L39 73l16.376-12.747.15.096.357-.49.32-.25.05-.26zm-3.3-.666l-5.977-3.87-3.58 11.264 9.556-7.394zM75.755 16.09L48.98 53.17l-1.73-.8 27.054-37.31 1.452 1.03zM10 37h31v4H10zM10 47h25v4H10zM10 57h25v4H10z"/><path d="M62.166 23.947V8.892A3.998 3.998 0 0 0 58.16 4.9H29.857l-.214.217v17.646s.14 1.69-.314 3.324c-.48 1.73-1.662 3.416-5.72 3.67-6.054.377-14.734.175-18.454.06l-.302.305v46.01a3.998 3.998 0 0 0 4.008 3.992H58.16a4 4 0 0 0 4.006-3.99v-19.75L67 48.928v28.078A7.994 7.994 0 0 1 59.004 85H8.017A7.998 7.998 0 0 1 .02 77.006V30.768L0 30.76v-5.578L25.17 0h6.925l.05.025h26.86A7.998 7.998 0 0 1 67 8.02v8.64l-4.834 7.287z"/></g></svg><svg width="90" height="88" viewBox="0 0 90 88" id="svg--how-to-join-icon-second"><title>ECF46708-F049-4AC2-AB72-991A517CE586</title><path d="M87.072 28.176L60.537 2.324c-3.18-3.1-8.354-3.1-11.534 0L2.385 47.744a7.81 7.81 0 0 0 0 11.238L28.92 84.834c3.18 3.1 8.354 3.1 11.534 0l46.617-45.42a7.81 7.81 0 0 0 .002-11.238zM33.81 81.696a2.683 2.683 0 0 1-1.046-.608L6.23 55.236c-.008-.007-.01-.016-.017-.024H33.81v26.485zM7.847 49.915L51.23 7.644l.002 41.115c0 .617-.552 1.155-1.187 1.155H7.847zm31.4 28.604V55.212h10.798a6.67 6.67 0 0 0 4.684-1.89 6.33 6.33 0 0 0 1.938-4.563V38.237h23.92l-41.34 40.28zm17.42-45.577V6.054c.01.008.018.01.026.017l26.534 25.852c.303.296.495.648.624 1.02H56.67z" fill="#D22630" fill-rule="evenodd"/></svg><svg width="62" height="88" viewBox="0 0 62 88" id="svg--how-to-join-icon-third" x="90"><title>918EBDAE-0A60-44BB-BF2D-D5D645DB1B8F</title><path d="M44.71 13.22C44.71 5.916 38.67 0 31.204 0h-.914c-7.466 0-13.51 5.915-13.51 13.22v30.22c0 7.307 6.044 13.22 13.51 13.22h.913c7.465 0 13.508-5.913 13.508-13.22V13.22zm-6.093 30.22c0 4.026-3.3 7.257-7.414 7.257h-.914c-4.114 0-7.415-3.23-7.415-7.257V13.22c0-4.025 3.3-7.256 7.414-7.256h.913c4.113 0 7.414 3.23 7.414 7.257v30.22zm-35.04-8.25c-1.675 0-3.046 1.342-3.046 2.982 0 16.302 11.53 29.87 26.407 31.958v11.88h-13.71c-1.676 0-3.047 1.34-3.047 2.982 0 1.64 1.37 2.982 3.046 2.982h35.547c1.676 0 3.047-1.342 3.047-2.982 0-1.64-1.37-2.982-3.047-2.982H33.03V70.38c15.845-1.094 28.44-15.11 28.44-32.16 0-1.64-1.372-2.98-3.048-2.98s-3.047 1.34-3.047 2.98c0 14.514-10.918 26.294-24.375 26.294S6.625 52.684 6.625 38.172c0-1.64-1.37-2.982-3.047-2.982z" fill="#D22630" fill-rule="evenodd"/></svg><svg width="30" height="30" viewBox="0 0 30 30" id="svg--i-fb" x="237" y="67"><title>802BBBD8-ADF7-4F45-BD39-3F94F9F5B6EF</title><path d="M14.805 0C6.642 0 0 6.682 0 14.896 0 23.108 6.642 29.79 14.805 29.79S29.61 23.11 29.61 14.897C29.61 6.682 22.97 0 14.806 0zm3.682 15.42H16.08v8.638h-3.57V15.42h-1.697v-3.053h1.696v-1.974c0-1.415.667-3.624 3.6-3.624l2.646.01V9.74h-1.92c-.312 0-.756.157-.756.832v1.794h2.72l-.313 3.052z" fill="#FFF" fill-rule="evenodd"/></svg><svg width="30" height="30" viewBox="0 0 30 30" id="svg--i-instagram" x="237" y="37"><title>CA256D3F-C247-418D-B124-06B7B902EB6B</title><g fill="#FFF" fill-rule="evenodd"><path d="M14.805 17.878a2.978 2.978 0 0 0 2.404-4.72 2.955 2.955 0 0 0-2.403-1.244c-.99 0-1.865.492-2.404 1.243a2.98 2.98 0 0 0-.56 1.738 2.975 2.975 0 0 0 2.962 2.983zM21.277 11.248V8.376h-.37l-2.485.01.01 2.87z"/><path d="M14.805 0C6.642 0 0 6.682 0 14.896 0 23.108 6.642 29.79 14.805 29.79S29.61 23.11 29.61 14.897C29.61 6.682 22.97 0 14.806 0zm8.42 13.157v6.936c0 1.807-1.46 3.275-3.254 3.275H9.64c-1.795 0-3.255-1.468-3.255-3.275V9.7c0-1.807 1.46-3.275 3.255-3.275h10.33c1.796 0 3.256 1.468 3.256 3.274v3.457z"/><path d="M19.41 14.896c0 2.554-2.065 4.633-4.605 4.633-2.54 0-4.605-2.08-4.605-4.634 0-.615.122-1.202.34-1.74H8.024v6.937c0 .897.724 1.623 1.614 1.623h10.33a1.62 1.62 0 0 0 1.614-1.623v-6.936H19.07c.218.537.34 1.124.34 1.74z"/></g></svg><svg width="30" height="30" viewBox="0 0 30 30" id="svg--i-vk" x="269" y="190"><title>0D353DAD-4A21-4AA1-B89F-E2DEE5431F08</title><path d="M14.87 0C6.66 0 0 6.7 0 14.962c0 8.263 6.658 14.96 14.87 14.96 8.214 0 14.872-6.697 14.872-14.96C29.742 6.7 23.084 0 14.872 0zm7.545 16.58c.693.68 1.426 1.322 2.048 2.074.276.332.536.676.734 1.062.282.552.027 1.156-.464 1.19l-3.046-.002c-.787.066-1.413-.253-1.94-.795-.423-.432-.814-.893-1.22-1.34a2.855 2.855 0 0 0-.548-.49c-.416-.27-.777-.188-1.015.248-.243.445-.298.937-.32 1.43-.034.724-.25.913-.972.947-1.54.072-3-.163-4.36-.944-1.198-.688-2.125-1.66-2.933-2.762-1.574-2.146-2.78-4.502-3.862-6.926-.244-.546-.066-.838.533-.85.995-.018 1.99-.016 2.984 0 .405.007.672.24.828.624.537 1.33 1.196 2.595 2.02 3.77.22.312.446.623.766.844.353.244.622.163.788-.233.107-.252.153-.522.176-.792.08-.924.088-1.85-.05-2.77-.084-.577-.406-.95-.977-1.058-.29-.055-.25-.164-.107-.33.245-.29.476-.468.935-.468l3.442-.002c.543.107.665.352.738.902l.003 3.848c-.006.213.107.844.486.983.305.102.505-.143.687-.337.825-.882 1.413-1.922 1.94-2.998.232-.475.433-.967.627-1.46.145-.363.37-.542.78-.536l3.313.003c.098 0 .197 0 .294.018.56.097.712.34.54.887-.273.862-.802 1.58-1.318 2.3-.554.77-1.145 1.512-1.693 2.286-.504.707-.464 1.063.162 1.677z" fill="#FFF" fill-rule="evenodd"/></svg><svg width="30" height="30" viewBox="0 0 30 30" id="svg--i-youtube" x="269" y="160"><title>9D5DF4BB-A844-4862-B35D-3BA58C3D4DA0</title><g transform="translate(.014)" fill="#FFF" fill-rule="evenodd"><path d="M7.812 16.066h1.18v6.42h1.115v-6.42h1.2v-1.052H7.813zM17.244 16.85c-.37 0-.713.203-1.036.604v-2.44h-1.003v7.472h1.003v-.54c.335.417.68.617 1.036.617.4 0 .667-.21.8-.626.07-.236.103-.606.103-1.122v-2.217c0-.527-.034-.895-.102-1.118-.133-.418-.402-.63-.8-.63zm-.1 4.044c0 .504-.147.752-.437.752-.164 0-.332-.08-.5-.25v-3.392c.168-.167.336-.246.5-.246.29 0 .437.258.437.76v2.376zM13.334 21.174c-.222.316-.432.472-.634.472-.134 0-.21-.08-.234-.236-.01-.033-.01-.156-.01-.392v-4.1h-1.002v4.403c0 .394.033.66.088.83.1.28.324.413.646.413.37 0 .748-.224 1.146-.684v.607h1.004V16.92h-1.004v4.254zM14.195 11.775c.327 0 .483-.26.483-.78V8.627c0-.52-.156-.78-.483-.78-.327 0-.484.26-.484.78v2.366c0 .52.158.78.485.78z"/><path d="M14.87 0C6.66 0 0 6.7 0 14.962c0 8.263 6.658 14.96 14.87 14.96 8.214 0 14.872-6.697 14.872-14.96C29.742 6.7 23.084 0 14.872 0zm1.655 6.998h1.01v4.142c0 .24 0 .363.013.397.022.158.102.24.237.24.203 0 .416-.16.64-.48v-4.3h1.014v5.627h-1.014v-.613c-.404.466-.788.692-1.158.692-.326 0-.55-.134-.653-.418-.056-.17-.09-.44-.09-.837v-4.45zm-3.827 1.835c0-.602.102-1.042.317-1.326.28-.385.675-.577 1.18-.577.508 0 .902.192 1.182.577.213.284.314.724.314 1.326v1.97c0 .598-.1 1.04-.313 1.323-.28.384-.674.576-1.182.576-.505 0-.9-.192-1.18-.576-.215-.282-.317-.725-.317-1.323v-1.97zm-2.71-3.76l.798 2.966.766-2.966h1.137l-1.353 4.493v3.057h-1.123V9.567c-.102-.542-.327-1.336-.688-2.39-.236-.7-.483-1.403-.72-2.103h1.182zm12.89 17.905c-.204.887-.926 1.542-1.795 1.64-2.057.23-4.14.232-6.213.23-2.073.002-4.155 0-6.213-.23-.868-.098-1.59-.752-1.793-1.64-.29-1.264-.29-2.644-.29-3.946s.005-2.682.294-3.946c.203-.888.924-1.543 1.792-1.64 2.058-.23 4.14-.233 6.214-.23 2.073-.003 4.155 0 6.213.23.868.097 1.59.752 1.794 1.64.29 1.264.287 2.644.287 3.946s0 2.682-.29 3.946z"/><path d="M20.438 16.85c-.513 0-.912.19-1.2.57-.214.283-.31.718-.31 1.313v1.95c0 .592.108 1.03.32 1.31.29.38.69.57 1.215.57.523 0 .934-.2 1.212-.604.122-.18.2-.382.234-.606.01-.1.02-.324.02-.65v-.146h-1.022c0 .404-.013.628-.022.683-.057.27-.2.405-.448.405-.345 0-.513-.257-.513-.772v-.987h2.005v-1.153c0-.595-.1-1.03-.31-1.312-.28-.38-.68-.57-1.182-.57zm.49 2.196h-1.003v-.515c0-.514.17-.77.504-.77.33 0 .498.257.498.77v.516z"/></g></svg><svg width="35" height="35" viewBox="0 0 35 35" id="svg--in-red" x="269" y="105"><title>7B47E1BC-527A-4FCC-9DEE-39FC94746C4A</title><g fill="#D9232E" fill-rule="evenodd"><path d="M17.378 20.857c1.917 0 3.48-1.56 3.48-3.48 0-.756-.248-1.455-.658-2.027a3.475 3.475 0 0 0-2.82-1.45c-1.162 0-2.19.573-2.822 1.45a3.463 3.463 0 0 0-.658 2.028 3.48 3.48 0 0 0 3.478 3.48zM24.975 13.122v-3.35h-.437l-2.914.01.01 3.35z"/><path d="M17.378 0C7.796 0 0 7.796 0 17.378s7.796 17.378 17.378 17.378 17.378-7.796 17.378-17.378S26.96 0 17.378 0zm9.884 15.35v8.092a3.824 3.824 0 0 1-3.82 3.82H11.315a3.823 3.823 0 0 1-3.82-3.82V11.316a3.823 3.823 0 0 1 3.82-3.82H23.44a3.824 3.824 0 0 1 3.822 3.82v4.034z"/><path d="M22.784 17.378a5.413 5.413 0 0 1-5.406 5.406 5.412 5.412 0 0 1-5.405-5.406c0-.717.143-1.402.397-2.028H9.42v8.092c0 1.046.85 1.893 1.894 1.893H23.44a1.895 1.895 0 0 0 1.894-1.893V15.35h-2.95c.255.626.4 1.31.4 2.028z"/></g></svg><svg width="53" height="66" viewBox="0 0 53 66" id="svg--logo-deptrans-mobile" y="170"><title>CF719994-FC92-4FB6-BFF4-7ED207B625FF</title><g fill="#D9232E" fill-rule="evenodd"><g transform="translate(8.588)"><path d="M17.407 10.457c-3.98 0-7.207 3.274-7.207 7.288 0 4.04 3.226 7.315 7.207 7.315 3.955 0 7.208-3.275 7.208-7.315 0-4.014-3.253-7.288-7.208-7.288zm0 11.75c-2.42 0-4.397-2.006-4.397-4.462s1.977-4.436 4.397-4.436 4.397 1.98 4.397 4.435c0 2.456-1.977 4.463-4.397 4.463z"/><path d="M26.046 26.538l.026-.026c2.21-2.245 3.564-5.334 3.564-8.767 0-6.84-5.49-12.41-12.23-12.41-6.738 0-12.228 5.57-12.228 12.41 0 3.433 1.38 6.55 3.565 8.767.26.264.624.422 1.014.422a1.41 1.41 0 0 0 1.405-1.426c0-.396-.182-.765-.442-1.03-1.69-1.716-2.732-4.092-2.732-6.733 0-5.28 4.215-9.56 9.42-9.56 5.203 0 9.418 4.28 9.418 9.56 0 2.64-1.04 5.044-2.758 6.76l-12.23 12.41 2.004 2.008 12.204-12.385z"/><path d="M34.684 17.745C34.684 8.08 26.956.21 17.407.21 7.857.21.13 8.08.13 17.746c0 4.832 1.926 9.242 5.048 12.385.26.264.598.422 1.015.422.754 0 1.405-.634 1.405-1.426 0-.396-.182-.766-.443-1.03a14.72 14.72 0 0 1-4.215-10.35c0-8.08 6.48-14.683 14.467-14.683 7.988 0 14.467 6.602 14.467 14.682 0 4.067-1.613 7.737-4.24 10.378l-12.23 12.41 2.003 2.007 12.23-12.41a17.594 17.594 0 0 0 5.047-12.385z"/></g><g transform="translate(0 46.706)"><path d="M0 6.46L1.213.027h.897l1.768 4.137L5.725.026h.896L7.73 6.46H6.436L5.83 2.53 4.036 6.563h-.343L1.98 2.58l-.687 3.88zM10.684 2.222c.343 0 .66.05.95.153.29.102.554.23.79.434.212.203.37.433.502.714.132.28.21.562.21.894 0 .332-.078.64-.21.92-.13.255-.29.51-.527.69-.212.203-.476.33-.766.433-.29.103-.607.154-.95.154-.343 0-.66-.05-.95-.153-.29-.1-.554-.23-.765-.433a2.317 2.317 0 0 1-.528-.69 2.128 2.128 0 0 1-.185-.92c0-.33.053-.612.185-.893.132-.28.316-.51.527-.715.21-.205.474-.333.764-.435.29-.102.607-.153.95-.153zm0 3.345c.343 0 .633-.102.87-.332.212-.204.344-.485.344-.817 0-.332-.132-.587-.343-.817-.238-.23-.528-.33-.87-.357-.344 0-.634.128-.845.358a1.06 1.06 0 0 0-.343.818c0 .332.105.613.343.843.21.205.5.333.844.307zM17.28 2.477V3.6a2.29 2.29 0 0 0-.423-.255c-.185-.05-.343-.102-.554-.102-.37 0-.66.128-.87.358-.238.23-.317.486-.317.818 0 .332.105.613.343.843.236.205.527.307.896.307.158 0 .316-.025.5-.076.16-.05.29-.153.423-.28v1.15a3.172 3.172 0 0 1-.528.178 2.07 2.07 0 0 1-.554.076 3.69 3.69 0 0 1-.924-.178A2.324 2.324 0 0 1 14.536 6c-.21-.177-.37-.407-.502-.688a2.318 2.318 0 0 1-.158-.868c0-.358.053-.69.185-.97.133-.282.317-.512.555-.716.21-.18.448-.306.712-.41.237-.075.528-.126.818-.126.21 0 .422.025.607.076.184.026.37.103.527.18zM18.36 2.35h1.188v1.608l1.61-1.61h1.476L20.71 4.19l2.03 2.273h-1.53l-1.477-1.684-.185.178V6.46H18.36zM25.167 2.222c.343 0 .66.05.95.153.29.102.554.23.79.434.212.203.37.433.502.714.13.28.21.562.21.894 0 .332-.08.64-.21.92-.133.255-.29.51-.502.69-.237.203-.5.33-.79.433-.292.103-.608.154-.95.154-.344 0-.66-.05-.95-.153a2.267 2.267 0 0 1-.766-.433 2.317 2.317 0 0 1-.527-.69 2.128 2.128 0 0 1-.185-.92c0-.33.053-.612.185-.893.13-.28.316-.51.527-.715.238-.205.475-.333.765-.435.29-.102.607-.153.95-.153zm0 3.345c.343 0 .633-.102.87-.332.212-.204.343-.485.343-.817 0-.332-.13-.587-.343-.817-.237-.23-.527-.33-.87-.357-.343 0-.633.128-.844.358a1.06 1.06 0 0 0-.343.818c0 .332.105.613.343.843.21.205.5.333.844.307zM28.464 2.35h1.873c.264 0 .45.025.607.076.16.026.29.102.422.18.106.1.21.203.29.356.08.128.106.28.106.46s-.053.332-.158.485a.95.95 0 0 1-.422.358c.105.025.184.05.29.102.105.05.184.102.264.153a1.068 1.068 0 0 1 .316.766c0 .205-.026.383-.105.537-.08.153-.21.28-.343.383-.106.102-.264.153-.422.204-.16.05-.343.05-.528.05h-2.19V2.35zm1.188 1.634h.738c.053-.026.106-.05.132-.077.053-.025.106-.05.132-.102.026-.05.026-.102.026-.18 0-.05 0-.1-.026-.152-.026-.05-.053-.102-.105-.128a.205.205 0 0 0-.133-.05c-.027 0-.106-.026-.21-.026h-.555v.714zm0 1.583h.58c.105 0 .185-.025.264-.025.053-.026.132-.05.184-.077.027-.05.08-.076.106-.153.026-.05.026-.128.026-.18 0-.075 0-.127-.026-.178-.026-.05-.08-.076-.106-.127-.052-.026-.105-.05-.184-.05-.08-.027-.16-.027-.238-.052h-.606v.842zM36.14 2.477V3.6c-.13-.1-.29-.178-.447-.255a1.755 1.755 0 0 0-.528-.102c-.396 0-.686.128-.897.358a1.14 1.14 0 0 0-.316.818c0 .332.13.613.343.843.237.205.527.307.896.307.186 0 .344-.025.503-.076.158-.05.316-.153.448-.28v1.15a4.28 4.28 0 0 1-.526.178 2.12 2.12 0 0 1-.58.076 3.69 3.69 0 0 1-.924-.178A1.946 1.946 0 0 1 33.398 6c-.21-.177-.396-.407-.502-.688-.132-.255-.184-.562-.184-.868 0-.358.08-.69.21-.97.133-.282.29-.512.528-.716.21-.18.45-.306.713-.41.263-.075.527-.126.817-.126.21 0 .423.025.607.076.185.026.37.103.554.18zM37.144 2.35h1.187v1.608l1.584-1.61h1.503L39.49 4.19l2.033 2.273h-1.53l-1.478-1.684-.184.178V6.46h-1.186zM42.103 2.35h1.214v2.553L45.27 2.35h1.212v4.11H45.27V3.934L43.316 6.46h-1.214zM47.696 2.35h1.187v2.553L50.86 2.35h1.19v4.11h-1.19V3.934L48.884 6.46h-1.187V2.35zM50.703.305l.765.358a1.407 1.407 0 0 1-.607.74 2.14 2.14 0 0 1-1 .23 1.95 1.95 0 0 1-1.003-.255c-.29-.154-.502-.41-.607-.716l.79-.358c.028.18.133.307.29.435a.912.912 0 0 0 .53.154 1 1 0 0 0 .553-.153c.132-.127.237-.255.29-.434z"/><g transform="translate(3.28 9.664)"><path d="M4.924 1.56H3.447v5.262H2.18v-5.26H.704V.487h4.22zM6.138 6.285v2.733H4.95V2.71H6.14v.536c.158-.204.343-.383.58-.485.238-.127.5-.178.818-.178.607 0 1.108.205 1.504.64.395.407.58.918.58 1.53 0 .64-.185 1.176-.58 1.584-.396.41-.924.613-1.53.613-.29 0-.554-.052-.766-.154a1.438 1.438 0 0 1-.606-.51zm1.055-2.68c-.343 0-.633.127-.844.33-.212.23-.344.512-.318.844 0 .33.106.61.317.816.236.23.5.332.843.332.343 0 .633-.102.844-.332.238-.205.343-.485.343-.817 0-.333-.105-.614-.343-.82-.21-.228-.5-.356-.844-.356zM13.814 3.246V2.71h1.188v4.112h-1.188v-.537c-.158.23-.343.41-.58.51a1.65 1.65 0 0 1-.74.154c-.632 0-1.16-.205-1.555-.614a2.23 2.23 0 0 1-.608-1.557c0-.64.185-1.15.58-1.56.396-.433.898-.638 1.53-.638.29 0 .58.05.792.18.237.1.422.28.58.484zm-1.055.358c-.37 0-.634.128-.87.332a1.2 1.2 0 0 0-.318.843c0 .33.106.61.317.816.236.23.5.332.87.332.342 0 .606-.102.817-.332.237-.205.343-.485.343-.817a1.2 1.2 0 0 0-.317-.844c-.237-.204-.5-.332-.844-.332zM16.11 6.822V2.71h1.213v1.456h1.662V2.71h1.213v4.112h-1.213v-1.66h-1.662v1.66zM24.525 2.838V3.96a1.556 1.556 0 0 0-.45-.254 1.142 1.142 0 0 0-.526-.102c-.37 0-.687.128-.898.357a.967.967 0 0 0-.29.793c0 .358.105.638.343.843.237.23.527.332.897.332.158 0 .316-.026.474-.077.16-.075.317-.152.45-.28v1.124c-.16.102-.344.153-.53.204-.183.05-.368.05-.553.05-.343 0-.633-.05-.923-.152a2.324 2.324 0 0 1-.74-.434c-.21-.18-.368-.41-.5-.69a2.36 2.36 0 0 1-.158-.893c0-.333.053-.665.184-.946.132-.28.317-.51.554-.715.212-.18.423-.308.713-.41.237-.077.527-.128.818-.128.212 0 .423.026.607.05.185.052.37.104.528.206zM25.554 2.71h4.036v4.112h-1.214V3.706H26.74v3.116h-1.186zM32.86 2.582c.344 0 .634.05.924.154.317.102.554.23.792.434.21.178.396.434.527.715.132.255.185.562.185.894 0 .33-.053.637-.185.892a2.43 2.43 0 0 1-.527.715 2.6 2.6 0 0 1-.792.435c-.263.102-.58.127-.923.127-.342 0-.658-.026-.95-.128a2.458 2.458 0 0 1-.764-.435 2.043 2.043 0 0 1-.527-.715 1.95 1.95 0 0 1-.212-.893c0-.333.08-.64.21-.895.133-.28.29-.537.528-.715.21-.205.475-.332.765-.434.292-.103.608-.154.95-.154zm0 3.346c.344 0 .634-.102.845-.332a1.06 1.06 0 0 0 .343-.817 1.06 1.06 0 0 0-.343-.82c-.21-.228-.5-.356-.844-.356-.342 0-.632.128-.87.357-.21.206-.342.487-.342.82 0 .33.132.586.343.816a1.1 1.1 0 0 0 .87.332zM37.346 6.285v2.733h-1.214V2.71h1.214v.536c.132-.204.343-.383.554-.485.237-.127.527-.178.818-.178.633 0 1.134.205 1.53.64.37.407.58.918.58 1.557 0 .61-.21 1.148-.607 1.556-.394.41-.896.613-1.53.613-.263 0-.526-.052-.764-.154-.237-.102-.422-.28-.58-.51zm1.055-2.68c-.342 0-.632.127-.843.33-.238.23-.343.512-.343.844 0 .33.105.61.343.816.21.23.5.332.844.332s.634-.102.845-.332c.21-.205.343-.485.343-.843 0-.306-.105-.587-.343-.792-.21-.228-.5-.356-.844-.356zM44.785 3.706h-1.16v3.116H42.41V3.706h-1.186V2.71h3.56z"/></g></g></g></svg><svg width="63" height="67" viewBox="0 0 63 67" id="svg--logo-mosmetro-mobile" x="143" y="88"><title>C4AE186F-CC27-4EF4-B57D-04F94B26A81F</title><g fill="#D9232E" fill-rule="evenodd"><g transform="translate(14.74)"><path d="M34.172 17.358c0-9.494-7.614-17.203-17.048-17.203C7.716.155.077 7.865.077 17.358c0 4.76 1.923 9.054 5 12.158.255.258.588.414.973.414.77 0 1.384-.62 1.384-1.397 0-.388-.154-.75-.41-1.01A14.44 14.44 0 0 1 2.87 17.36c0-7.942 6.384-14.41 14.254-14.41 7.87 0 14.28 6.468 14.28 14.41 0 3.983-1.59 7.58-4.18 10.192L15.177 39.708l1.948 1.992L29.2 29.516c3.075-3.104 4.972-7.4 4.972-12.158z"/><path d="M25.02 20.67L20.765 9.83l-3.59 6.338-3.588-6.338L9.33 20.67H8.1v1.628h6.41v-1.63h-.95l.924-2.69 2.692 4.45 2.69-4.45.924 2.69h-.948v1.63h6.434v-1.63z"/></g><g transform="translate(.428 46.706)"><path d="M6.597.055h.893l1.787 4.562L11.143.055h.894l1.13 7.078h-1.314l-.605-4.285-1.813 4.396h-.368L7.332 2.848l-.657 4.285H5.36zM17.45 4.894c0-.72-.5-1.3-1.208-1.3-.684 0-1.21.58-1.21 1.3 0 .69.5 1.27 1.21 1.27s1.21-.58 1.21-1.27zm.526-1.77c.447.387.736 1.023.736 1.77 0 .72-.29 1.354-.736 1.77-.368.36-.92.635-1.734.635-.815 0-1.367-.277-1.735-.637-.42-.415-.71-1.05-.71-1.77 0-.746.29-1.382.71-1.77.368-.358.92-.635 1.735-.635.814 0 1.366.277 1.734.636zM22.733 4.01c-.263-.25-.578-.416-1-.416-.813 0-1.208.636-1.208 1.3 0 .72.526 1.27 1.262 1.27.263 0 .604-.08.946-.386v1.245a2.63 2.63 0 0 1-1.13.276c-.657 0-1.262-.277-1.656-.665a2.445 2.445 0 0 1-.683-1.74c0-.775.315-1.41.762-1.826.526-.5 1.13-.582 1.55-.582.447 0 .815.083 1.157.25v1.27zM24.704 2.627v1.74l1.603-1.74h1.525l-1.945 2.018 2.023 2.488h-1.55L24.888 5.28l-.184.194v1.66h-1.21V2.626zM31.747 4.894c0-.72-.5-1.3-1.208-1.3-.685 0-1.21.58-1.21 1.3 0 .69.525 1.27 1.21 1.27.708 0 1.207-.58 1.207-1.27zm.526-1.77c.447.387.736 1.023.736 1.77 0 .72-.29 1.354-.737 1.77-.342.36-.92.635-1.734.635-.816 0-1.368-.277-1.736-.637-.42-.415-.71-1.05-.71-1.77 0-.746.29-1.382.71-1.77.368-.358.92-.635 1.735-.635.813 0 1.39.277 1.733.636zM35.584 6.138c.106 0 .316 0 .447-.11.08-.056.16-.194.16-.36a.395.395 0 0 0-.16-.332.865.865 0 0 0-.42-.11h-.604v.912h.578zm-.026-1.714c.026 0 .184 0 .316-.083a.388.388 0 0 0 .157-.303c0-.166-.05-.277-.13-.332-.105-.083-.237-.083-.368-.083h-.526v.802h.552zm.132-1.797c.29 0 .683 0 1.025.276.236.194.42.498.42.885a.97.97 0 0 1-.604.912c.21.055.42.166.58.304.183.194.314.443.314.857 0 .527-.236.83-.447.997-.34.276-.788.276-.972.276h-2.208V2.627h1.893zM41.42 4.01c-.264-.25-.58-.416-1-.416-.815 0-1.21.636-1.21 1.3 0 .72.527 1.27 1.236 1.27.29 0 .63-.08.973-.386v1.245a2.63 2.63 0 0 1-1.13.276c-.658 0-1.263-.277-1.657-.665a2.445 2.445 0 0 1-.683-1.74c0-.775.315-1.41.736-1.826.525-.5 1.156-.582 1.55-.582.447 0 .815.083 1.183.25v1.27zM43.39 2.627v1.74l1.603-1.74h1.498l-1.944 2.018 2.05 2.488h-1.55L43.574 5.28l-.184.194v1.66h-1.21V2.626zM48.2 2.627V5.42l1.97-2.793h1.236v4.506H50.17V4.368L48.2 7.133h-1.21V2.627zM56.215.746c-.29.885-1.077 1.08-1.63 1.08-.525 0-1.313-.195-1.603-1.08l.79-.387a.83.83 0 0 0 .814.663c.368 0 .736-.22.84-.664l.79.386zm-2.602 1.88V5.42l1.97-2.793h1.21v4.506h-1.21V4.368l-1.97 2.765h-1.21V2.627h1.21zM1.445 9.953h.894l1.786 4.562 1.892-4.562h.894l1.104 7.078H6.702l-.58-4.284-1.838 4.396h-.342l-1.734-4.396-.684 4.285H.21zM11.958 14.183a1.02 1.02 0 0 0-1-.912c-.446 0-.92.305-1.024.913h2.024zm1.13 1.604c-.13.332-.63 1.41-2.13 1.41-.682 0-1.208-.22-1.628-.636-.5-.47-.684-1.077-.684-1.768 0-.913.342-1.466.657-1.77.5-.525 1.104-.663 1.604-.663.893 0 1.393.386 1.682.745.472.58.524 1.3.524 1.797v.083H9.882c0 .277.078.58.21.774.13.193.42.414.867.414.472 0 .814-.22.998-.58l1.13.193zM15.77 13.547v3.318h-1.315v-3.318H13.14v-1.105h3.68v1.105zM18.554 14.764c0 .72.5 1.3 1.183 1.3.71 0 1.183-.58 1.183-1.3 0-.72-.473-1.272-1.183-1.272-.683 0-1.183.553-1.183 1.272zm.106 4.7h-1.21v-6.94h1.21v.58a1.686 1.686 0 0 1 1.42-.745c1.26 0 2.1 1.05 2.1 2.404 0 1.382-.866 2.433-2.154 2.433-.263 0-.893-.055-1.366-.746v3.014zM26.412 14.792c0-.72-.5-1.3-1.21-1.3-.682 0-1.207.58-1.207 1.3 0 .69.5 1.27 1.208 1.27.71 0 1.21-.58 1.21-1.27zm.526-1.77c.447.387.736 1.023.736 1.77 0 .718-.29 1.354-.736 1.77-.368.33-.92.635-1.735.635-.814 0-1.366-.304-1.734-.636-.422-.414-.71-1.05-.71-1.768 0-.747.288-1.383.71-1.77.367-.36.92-.663 1.733-.663.815 0 1.367.303 1.735.662zM32.326 12.442v4.423h-1.052v-3.318h-1.84v3.318h-1.05v-4.423zM36.977 14.792c0-.72-.525-1.3-1.21-1.3-.682 0-1.207.58-1.207 1.3 0 .69.5 1.27 1.208 1.27.71 0 1.21-.58 1.21-1.27zm.526-1.77c.42.387.736 1.023.736 1.77 0 .718-.317 1.354-.737 1.77-.368.33-.92.635-1.735.635-.814 0-1.366-.304-1.734-.636a2.514 2.514 0 0 1-.736-1.768c0-.747.315-1.383.736-1.77.368-.36.92-.663 1.734-.663.815 0 1.367.303 1.735.662zM42.838 17.03h-1.235v-3.427h-1.157v1.66c0 .358-.052.94-.42 1.326-.08.11-.447.496-1.156.496-.106 0-.237-.027-.342-.055v-1.077c.053 0 .13.027.184.027.263 0 .42-.11.5-.22.13-.167.13-.388.13-.58v-2.655h3.496v4.506zM45.046 12.525v2.792l1.97-2.792h1.21v4.506h-1.21v-2.79l-1.97 2.79h-1.21v-4.505zM50.985 13.547v3.318H49.67v-3.318h-1.05v-1.105h3.68v1.105zM55.9 14.183a1.026 1.026 0 0 0-1.025-.912c-.447 0-.894.305-1 .913H55.9zm1.13 1.604c-.132.332-.63 1.41-2.13 1.41-.682 0-1.208-.22-1.628-.636-.5-.47-.684-1.077-.684-1.768 0-.913.342-1.466.657-1.77.5-.525 1.104-.663 1.603-.663.894 0 1.393.386 1.682.745.473.58.526 1.3.526 1.797v.083h-3.233c0 .277.08.58.21.774.132.193.395.414.868.414.474 0 .816-.22 1-.58l1.13.193zM57.818 12.442h1.05V14.1h1.84v-1.658h1.052v4.423h-1.05V14.93h-1.84v1.935h-1.052z"/></g></g></svg><svg width="32" height="20" viewBox="0 0 32 20" id="svg--menu-icon" x="269" y="140"><title>menu icon</title><path d="M0 2C0 .895.89 0 2.002 0h27.996C31.104 0 32 .888 32 2c0 1.105-.89 2-2.002 2H2.002A1.996 1.996 0 0 1 0 2zm0 8c0-1.105.89-2 2.002-2h27.996C31.104 8 32 8.888 32 10c0 1.105-.89 2-2.002 2H2.002A1.996 1.996 0 0 1 0 10zm0 8c0-1.105.89-2 2.002-2h27.996c1.106 0 2.002.888 2.002 2 0 1.105-.89 2-2.002 2H2.002A1.996 1.996 0 0 1 0 18z" fill="#F73742" fill-rule="evenodd"/></svg><svg width="78" height="82" viewBox="0 0 78 82" id="svg--mosmetro-logo" y="88"><title>5BE8534B-EA2D-4BBB-A37C-97F45F35FB57</title><g transform="translate(-1)" fill="#D9232E" fill-rule="evenodd"><g transform="translate(18.777)"><path d="M42.657 21.503c0-11.76-9.504-21.31-21.28-21.31C9.632.192.097 9.742.097 21.502c0 5.896 2.4 11.216 6.24 15.06.32.322.735.514 1.215.514.96 0 1.728-.77 1.728-1.73 0-.48-.192-.93-.512-1.25a17.817 17.817 0 0 1-5.184-12.594c0-9.838 7.968-17.85 17.793-17.85 9.824 0 17.824 8.012 17.824 17.85 0 4.935-1.983 9.39-5.215 12.626l-15.04 15.06 2.432 2.468L36.45 36.564a21.226 21.226 0 0 0 6.207-15.06z"/><path d="M31.233 25.605L25.92 12.177l-4.48 7.852-4.48-7.853-5.312 13.428h-1.536v2.018h8v-2.018H16.93l1.15-3.333 3.36 5.512 3.36-5.512 1.153 3.333H24.77v2.018h8.03v-2.018z"/></g><g transform="translate(.91 57.86)"><path d="M8.235.07H9.35l2.23 5.65L13.91.07h1.116l1.41 8.767h-1.64l-.755-5.31-2.262 5.447h-.46L9.153 3.528l-.82 5.31h-1.64zM21.784 6.062c0-.89-.623-1.61-1.51-1.61-.852 0-1.508.72-1.508 1.61 0 .857.623 1.576 1.51 1.576.885 0 1.508-.72 1.508-1.576zm.656-2.192c.558.48.92 1.268.92 2.192 0 .89-.362 1.68-.92 2.192-.46.446-1.148.788-2.165.788-1.017 0-1.706-.342-2.165-.788-.525-.513-.886-1.3-.886-2.192 0-.924.36-1.712.886-2.192.46-.445 1.148-.787 2.165-.787 1.017 0 1.706.342 2.165.787zM28.378 4.966c-.328-.308-.722-.513-1.246-.513-1.018 0-1.51.787-1.51 1.61 0 .89.657 1.575 1.575 1.575.328 0 .755-.103 1.18-.48V8.7c-.294.137-.786.342-1.41.342A3.01 3.01 0 0 1 24.9 8.22a3.017 3.017 0 0 1-.852-2.158c0-.96.393-1.746.95-2.26.657-.617 1.412-.72 1.937-.72.557 0 1.017.103 1.443.31v1.574zM30.84 3.254v2.158l2-2.158h1.903l-2.428 2.5 2.526 3.083h-1.934l-1.838-2.295-.23.24v2.055H29.33V3.254zM39.63 6.062c0-.89-.622-1.61-1.508-1.61-.853 0-1.51.72-1.51 1.61 0 .857.657 1.576 1.51 1.576.886 0 1.51-.72 1.51-1.576zm.657-2.192c.558.48.92 1.268.92 2.192 0 .89-.362 1.68-.92 2.192-.426.446-1.148.788-2.165.788-1.017 0-1.706-.342-2.165-.788-.525-.513-.886-1.3-.886-2.192 0-.924.362-1.712.887-2.192.46-.445 1.148-.787 2.165-.787 1.017 0 1.74.342 2.165.787zM44.42 7.604c.132 0 .395 0 .56-.137.097-.07.195-.24.195-.446a.488.488 0 0 0-.196-.41 1.087 1.087 0 0 0-.526-.137H43.7v1.13h.72zM44.39 5.48c.033 0 .23 0 .394-.103A.48.48 0 0 0 44.98 5c0-.205-.067-.342-.165-.41-.132-.103-.296-.103-.46-.103H43.7v.993h.688zm.164-2.226c.36 0 .853 0 1.28.342.295.24.525.617.525 1.096a1.2 1.2 0 0 1-.755 1.13c.262.07.525.206.722.377.23.24.393.547.393 1.06 0 .652-.295 1.03-.557 1.234-.427.343-.985.343-1.214.343H42.19V3.254h2.362zM51.704 4.966c-.328-.308-.722-.513-1.247-.513-1.017 0-1.51.787-1.51 1.61 0 .89.657 1.575 1.543 1.575.36 0 .788-.103 1.214-.48V8.7c-.295.137-.787.342-1.41.342a3.01 3.01 0 0 1-2.067-.822 3.017 3.017 0 0 1-.853-2.158c0-.96.393-1.746.918-2.26.656-.617 1.444-.72 1.936-.72.557 0 1.017.103 1.476.31v1.574zM54.165 3.254v2.158l2-2.158h1.87l-2.427 2.5 2.56 3.083H56.23l-1.836-2.295-.23.24v2.055h-1.51V3.254zM60.168 3.254v3.46l2.46-3.46h1.543v5.583h-1.54V5.412l-2.462 3.425h-1.51V3.254zM70.175.925C69.815 2.02 68.83 2.26 68.14 2.26c-.656 0-1.64-.24-2-1.335l.983-.48c.1.48.525.822 1.017.822.46 0 .92-.274 1.05-.822l.985.48zm-3.248 2.33v3.458l2.46-3.46h1.51v5.584h-1.51V5.412l-2.46 3.425h-1.51V3.254h1.51zM1.804 12.33H2.92l2.23 5.65 2.363-5.65h1.115l1.378 8.768h-1.64l-.722-5.31-2.296 5.447H4.92L2.757 15.79l-.853 5.308H.263zM14.927 17.57a1.27 1.27 0 0 0-1.246-1.13c-.557 0-1.148.377-1.28 1.13h2.527zm1.41 1.987c-.163.41-.786 1.747-2.656 1.747-.852 0-1.51-.274-2.033-.788-.624-.582-.853-1.336-.853-2.192 0-1.13.426-1.815.82-2.192.623-.65 1.378-.822 2-.822 1.116 0 1.74.48 2.1.925.59.72.657 1.61.657 2.226v.104h-4.035c0 .342.1.72.263.96.164.238.525.512 1.083.512.59 0 1.018-.274 1.247-.72l1.41.24zM19.684 16.783v4.11h-1.64v-4.11h-1.64v-1.37h4.593v1.37zM23.162 18.29c0 .89.623 1.61 1.476 1.61.886 0 1.476-.72 1.476-1.61 0-.89-.59-1.576-1.476-1.576-.853 0-1.476.685-1.476 1.576zm.13 5.822h-1.508v-8.597h1.51v.72a2.11 2.11 0 0 1 1.77-.925c1.575 0 2.625 1.3 2.625 2.98 0 1.712-1.083 3.014-2.69 3.014-.33 0-1.116-.07-1.707-.925v3.732zM32.97 18.324c0-.89-.622-1.61-1.508-1.61-.853 0-1.51.72-1.51 1.61 0 .856.624 1.575 1.51 1.575s1.51-.72 1.51-1.576zm.657-2.192c.558.48.92 1.267.92 2.192 0 .89-.362 1.678-.92 2.192-.46.41-1.148.788-2.165.788-1.017 0-1.706-.377-2.165-.788-.525-.514-.886-1.302-.886-2.192 0-.925.362-1.713.887-2.192.46-.445 1.148-.822 2.165-.822 1.017 0 1.706.377 2.165.822zM40.353 15.413v5.48H39.04v-4.11h-2.296v4.11h-1.312v-5.48zM46.16 18.324c0-.89-.656-1.61-1.51-1.61-.852 0-1.51.72-1.51 1.61 0 .856.625 1.575 1.51 1.575.886 0 1.51-.72 1.51-1.576zm.656-2.192c.525.48.918 1.267.918 2.192 0 .89-.393 1.678-.918 2.192-.46.41-1.148.788-2.165.788-1.016 0-1.705-.377-2.165-.788a3.102 3.102 0 0 1-.918-2.192c0-.925.393-1.713.918-2.192.46-.445 1.15-.822 2.166-.822 1.018 0 1.707.377 2.166.822zM53.476 21.098h-1.542V16.85H50.49v2.056c0 .445-.065 1.165-.525 1.644-.098.137-.557.617-1.443.617-.13 0-.295-.035-.427-.07v-1.335c.066 0 .164.035.23.035.328 0 .525-.137.623-.274.164-.206.164-.48.164-.72v-3.288h4.364v5.583zM56.23 15.515v3.46l2.462-3.46h1.51v5.583h-1.51v-3.46l-2.46 3.46h-1.51v-5.583zM63.646 16.783v4.11h-1.64v-4.11h-1.313v-1.37h4.593v1.37zM69.78 17.57c-.098-.753-.72-1.13-1.28-1.13-.556 0-1.114.377-1.245 1.13h2.526zm1.412 1.987c-.165.41-.788 1.747-2.658 1.747-.853 0-1.51-.274-2.034-.788-.623-.582-.853-1.336-.853-2.192 0-1.13.427-1.815.82-2.192.624-.65 1.378-.822 2.002-.822 1.114 0 1.737.48 2.098.925.59.72.656 1.61.656 2.226v.104H67.19c0 .342.097.72.262.96.164.238.492.512 1.082.512.59 0 1.017-.274 1.247-.72l1.412.24zM72.176 15.413h1.312v2.055h2.297v-2.055h1.312v5.48h-1.312v-2.398h-2.297v2.398h-1.312z"/></g></g></svg><svg width="32" height="37" viewBox="0 0 32 37" id="svg--pdf-file" x="237"><title>6EF23E82-6953-4265-92D2-BE8BFAA5FACB</title><g fill="#D22630" fill-rule="evenodd"><path d="M8.467 18.952c0-.996-.674-1.59-1.864-1.59-.485 0-.814.047-.986.095v3.2c.204.046.454.062.798.062 1.27 0 2.052-.66 2.052-1.768zM15.828 17.393c-.533 0-.876.048-1.08.097v7.086c.203.05.532.05.83.05 2.16.014 3.57-1.207 3.57-3.794.015-2.25-1.27-3.44-3.32-3.44z"/><path d="M29.068 13.23V8.945c-.01-.25-.06-.418-.175-.55L21.943.247A.753.753 0 0 0 21.412 0H4.333C3.552 0 2.92.65 2.92 1.45v11.78h-.867c-1.115 0-2.02.928-2.02 2.073v11.673c0 1.144.905 2.073 2.02 2.073h.866v6.486c0 .8.632 1.45 1.412 1.45h23.323c.78 0 1.413-.65 1.413-1.45V29.05h.866c1.115 0 2.02-.93 2.02-2.074V15.303c0-1.145-.905-2.073-2.02-2.073h-.866zM21.016 1v6.817c0 .4-.08 1.33.315 1.33h6.658v3.795H4.033V1h16.983zm.668 19.675c0 2.246-.736 3.795-1.755 4.753-1.112 1.027-2.803 1.514-4.87 1.514-1.236 0-2.113-.087-2.71-.173V15.243c.878-.157 2.022-.244 3.228-.244 2.003 0 3.303.4 4.32 1.253 1.097.906 1.786 2.35 1.786 4.422zM3.252 26.942V15.246c.736-.14 1.77-.246 3.226-.246 1.472 0 2.52.317 3.226.95.673.598 1.126 1.583 1.126 2.744 0 1.16-.343 2.146-.97 2.814-.814.862-2.02 1.25-3.43 1.25a5.33 5.33 0 0 1-.813-.054v4.238H3.252zm24.696 9.084H4.078V29h23.87V36.026zm1.755-18.81H25.51v2.727h3.917v2.198H25.51v4.802h-2.477V15h6.67v2.215z"/></g></svg><svg width="16" height="16" viewBox="0 0 16 16" id="svg--plus-icon" x="237" y="121"><title>F5D70C1D-6FC6-4BD2-9639-0DA58B889312</title><path d="M0 9.648h5.616v5.616h4.392V9.648h5.616V5.616h-5.616V0H5.616v5.616H0z" fill="#D9232E" fill-rule="evenodd"/></svg><svg width="7" height="7" viewBox="0 0 7 7" id="svg--req" x="289" y="220"><title>3503E31A-03E9-4491-BEA2-0AC63C16C3E3</title><path d="M.542 1.315L0 3.018l2.457.367-1.76 1.76 1.45 1.045L3.25 3.946 4.353 6.17l1.45-1.044-1.76-1.74L6.5 2.998l-.542-1.704-2.205 1.141L4.14 0H2.36l.387 2.438z" fill="#D5506B" fill-rule="evenodd"/></svg><svg width="32" height="40" viewBox="0 0 32 40" id="svg--scroll-top" x="99" y="170"><title>A3304820-1836-4A70-9697-4787B805A9B0</title><path d="M29.5 14a2.5 2.5 0 1 1 0 5 2.5 2.5 0 0 1 0-5zm-14 0a2.5 2.5 0 1 1 0 5 2.5 2.5 0 0 1 0-5zm-13 0a2.5 2.5 0 1 1 0 5 2.5 2.5 0 0 1 0-5zm13 7a2.5 2.5 0 1 1 0 5 2.5 2.5 0 0 1 0-5zm0 7a2.5 2.5 0 1 1 0 5 2.5 2.5 0 0 1 0-5zm0 7a2.5 2.5 0 1 1 0 5 2.5 2.5 0 0 1 0-5zm0-35a2.5 2.5 0 1 1 0 5 2.5 2.5 0 0 1 0-5zm7 7a2.5 2.5 0 1 1 0 5 2.5 2.5 0 0 1 0-5zm-7 0a2.5 2.5 0 1 1 0 5 2.5 2.5 0 0 1 0-5zm-7 0a2.5 2.5 0 1 1 0 5 2.5 2.5 0 0 1 0-5z" fill="#FFF" fill-rule="evenodd"/></svg><svg width="20" height="12" viewBox="0 0 20 12" id="svg--select-trigger" x="269" y="220"><title>07A9B658-F76F-4681-B61D-9F7A0E4CDF21</title><path d="M9.89 11.782a1.984 1.984 0 0 0 1.52-.58l7.79-7.79A1.997 1.997 0 0 0 19.193.59 1.99 1.99 0 0 0 16.37.584l-6.48 6.48L3.41.584A1.99 1.99 0 0 0 .587.59 1.997 1.997 0 0 0 .58 3.412l7.79 7.79c.418.417.974.61 1.52.58z" fill="#D9232E" fill-rule="evenodd"/></svg><svg width="40" height="32" viewBox="0 0 40 32" id="svg--slider-left" x="171" y="170"><title>021FA77E-6A71-492A-9391-543691B9A928</title><g transform="rotate(90 20 20)" fill="#D9232E" fill-rule="evenodd"><circle cx="29.5" cy="23.5" r="2.5"/><circle cx="15.5" cy="23.5" r="2.5"/><circle cx="2.5" cy="23.5" r="2.5"/><circle cx="15.5" cy="16.5" r="2.5"/><circle cx="15.5" cy="9.5" r="2.5"/><circle cx="15.5" cy="2.5" r="2.5"/><circle cx="15.5" cy="37.5" r="2.5"/><circle cx="22.5" cy="30.5" r="2.5"/><circle cx="15.5" cy="30.5" r="2.5"/><circle cx="8.5" cy="30.5" r="2.5"/></g></svg><svg width="40" height="32" viewBox="0 0 40 32" id="svg--slider-right" x="131" y="170"><title>A967424D-14DF-4B97-8514-DD68DB26DEFB</title><g transform="matrix(0 1 1 0 0 0)" fill="#D9232E" fill-rule="evenodd"><circle cx="29.5" cy="23.5" r="2.5"/><circle cx="15.5" cy="23.5" r="2.5"/><circle cx="2.5" cy="23.5" r="2.5"/><circle cx="15.5" cy="16.5" r="2.5"/><circle cx="15.5" cy="9.5" r="2.5"/><circle cx="15.5" cy="2.5" r="2.5"/><circle cx="15.5" cy="37.5" r="2.5"/><circle cx="22.5" cy="30.5" r="2.5"/><circle cx="15.5" cy="30.5" r="2.5"/><circle cx="8.5" cy="30.5" r="2.5"/></g></svg><svg width="35" height="35" viewBox="0 0 35 35" id="svg--vk-red" x="269" y="70"><title>EDF95F74-91B6-4616-B528-F6E7FA3A0447</title><path d="M17.455 0C7.815 0 0 7.815 0 17.455c0 9.64 7.815 17.456 17.455 17.456 9.64 0 17.456-7.814 17.456-17.455C34.91 7.815 27.096 0 17.456 0zm8.855 19.343c.813.795 1.674 1.543 2.404 2.42.324.387.63.788.86 1.24.332.643.033 1.348-.543 1.386h-3.575c-.923.075-1.658-.297-2.278-.93-.494-.502-.953-1.04-1.43-1.56a3.344 3.344 0 0 0-.644-.573c-.487-.317-.91-.22-1.19.29-.285.518-.35 1.092-.377 1.67-.04.842-.293 1.062-1.14 1.102-1.807.084-3.522-.19-5.117-1.102-1.407-.804-2.496-1.94-3.444-3.223-1.847-2.505-3.262-5.253-4.533-8.08-.286-.637-.077-.978.626-.99a99.51 99.51 0 0 1 3.5-.002c.475.007.79.28.972.727.63 1.552 1.404 3.028 2.373 4.397.258.365.52.73.897.986.414.284.73.19.925-.272a3 3 0 0 0 .206-.922c.093-1.08.104-2.158-.057-3.232-.1-.673-.478-1.107-1.148-1.234-.342-.065-.292-.19-.126-.386.29-.337.56-.546 1.098-.546h4.04c.637.124.78.41.867 1.05l.003 4.49c-.007.25.125.985.57 1.148.358.118.594-.17.807-.395.97-1.028 1.66-2.242 2.278-3.498.272-.554.508-1.127.736-1.7.17-.426.436-.635.915-.628l3.89.005c.115 0 .232 0 .345.02.656.113.836.395.633 1.035-.32 1.005-.94 1.842-1.546 2.68-.65.9-1.343 1.767-1.987 2.67-.59.824-.545 1.24.19 1.956z" fill="#D9232E" fill-rule="evenodd"/></svg><svg width="35" height="35" viewBox="0 0 35 35" id="svg--yt-red" x="269" y="35"><title>BFF15E4F-0B4F-47D4-A808-38FA21FABD8D</title><g fill="#D9232E" fill-rule="evenodd"><path d="M9.17 18.744h1.384v7.49h1.31v-7.49h1.41v-1.227H9.17zM20.24 19.66c-.432 0-.836.236-1.216.704v-2.848h-1.177v8.718h1.177v-.63c.394.487.798.72 1.217.72.47 0 .784-.247.94-.73.08-.276.12-.708.12-1.31V21.7c0-.615-.04-1.044-.12-1.305-.156-.487-.47-.734-.94-.734zm-.117 4.717c0 .587-.172.876-.512.876-.192 0-.39-.092-.586-.29v-3.958c.197-.195.393-.287.587-.287.34 0 .513.3.513.887v2.772zM15.65 24.703c-.26.368-.506.55-.743.55-.157 0-.247-.092-.275-.275-.01-.038-.01-.182-.01-.457v-4.78h-1.178v5.134c0 .46.04.77.104.966.118.33.38.484.758.484.433 0 .878-.262 1.345-.798v.708h1.18V19.74h-1.18v4.963zM16.662 13.738c.383 0 .567-.304.567-.91v-2.762c0-.608-.185-.91-.568-.91-.384 0-.568.303-.568.91v2.76c0 .608.184.912.568.912z"/><path d="M17.455 0C7.815 0 0 7.815 0 17.455c0 9.64 7.815 17.456 17.455 17.456 9.64 0 17.456-7.814 17.456-17.455C34.91 7.815 27.097 0 17.456 0zm1.942 8.164h1.186v4.833c0 .28 0 .424.014.463.026.184.12.278.28.278.237 0 .487-.184.75-.557V8.165h1.19v6.564h-1.19v-.716c-.473.543-.924.807-1.358.807-.384 0-.65-.157-.768-.49-.066-.198-.105-.512-.105-.975v-5.19zm-4.492 2.14c0-.7.12-1.214.372-1.546.33-.45.792-.673 1.385-.673.596 0 1.058.224 1.387.673.25.332.368.845.368 1.547v2.298c0 .698-.12 1.216-.37 1.544-.328.448-.79.672-1.386.672-.593 0-1.056-.225-1.385-.673-.253-.328-.372-.846-.372-1.544v-2.298zm-3.18-4.384l.935 3.46.9-3.46h1.334l-1.587 5.24v3.57H11.99v-3.57c-.12-.63-.385-1.557-.808-2.786-.278-.817-.568-1.637-.846-2.454h1.388zM26.85 26.808c-.238 1.035-1.085 1.8-2.105 1.913-2.415.27-4.858.272-7.293.27-2.433.002-4.878 0-7.292-.27-1.02-.113-1.867-.877-2.105-1.912-.34-1.475-.34-3.085-.34-4.604 0-1.52.005-3.13.344-4.604.24-1.035 1.086-1.8 2.105-1.913 2.415-.27 4.86-.27 7.294-.27 2.432 0 4.876 0 7.29.27 1.02.114 1.868.878 2.107 1.913.338 1.475.336 3.085.336 4.604 0 1.518 0 3.13-.34 4.604z"/><path d="M23.99 19.66c-.603 0-1.07.22-1.41.665-.25.33-.364.836-.364 1.53v2.276c0 .69.128 1.203.378 1.528.34.443.81.665 1.425.665.613 0 1.096-.232 1.42-.704.144-.21.237-.446.276-.706.01-.118.025-.38.025-.76v-.17h-1.2c0 .47-.014.733-.025.797-.067.316-.236.473-.526.473-.405 0-.603-.3-.603-.9V23.2h2.354v-1.345c0-.694-.116-1.202-.363-1.53-.33-.444-.797-.666-1.388-.666zm.575 2.56h-1.177v-.6c0-.6.197-.9.59-.9.39 0 .587.3.587.9v.6z"/></g></svg></svg>