<svg xmlns="http://www.w3.org/2000/svg" width="30" height="30" viewBox="0 0 30 30">
    <path fill="#FFF" fill-rule="evenodd" d="M14.87 0h.002c8.212 0 14.87 6.7 14.87 14.962 0 8.263-6.658 14.96-14.872 14.96C6.658 29.922 0 23.225 0 14.962 0 6.7 6.66 0 14.87 0zM15 7.328a2.354 2.354 0 0 1 2.352 2.352A2.353 2.353 0 0 1 15 12.027a2.353 2.353 0 0 1-2.352-2.347A2.354 2.354 0 0 1 15 7.328zm0 8.027a5.684 5.684 0 0 0 5.68-5.675A5.685 5.685 0 0 0 15 4a5.681 5.681 0 0 0-5.676 5.68A5.68 5.68 0 0 0 15 15.355zm2.297 4.633a10.706 10.706 0 0 0 3.297-1.367 1.664 1.664 0 1 0-1.774-2.816 7.215 7.215 0 0 1-7.644 0 1.664 1.664 0 0 0-1.77 2.816 10.706 10.706 0 0 0 3.297 1.367L9.527 23.16a1.664 1.664 0 0 0 2.356 2.352L15 22.395l3.121 3.117c.649.652 1.7.652 2.352 0a1.664 1.664 0 0 0 0-2.352l-3.176-3.172z"/>
</svg>
