<svg xmlns="http://www.w3.org/2000/svg" width="65" height="81" viewBox="0 0 65 81">
    <g fill="#FFF" fill-rule="evenodd">
        <path d="M32.45 12.954c-4.97 0-8.997 4.056-8.997 9.03 0 5.004 4.027 9.06 8.997 9.06 4.937 0 8.997-4.056 8.997-9.06 0-4.974-4.06-9.03-8.997-9.03zm0 14.557c-3.02 0-5.49-2.485-5.49-5.527a5.495 5.495 0 0 1 5.49-5.496c3.02 0 5.49 2.453 5.49 5.496 0 3.042-2.47 5.528-5.49 5.528v-.001z"/>
        <path d="M43.233 32.876l.033-.033c2.76-2.78 4.45-6.608 4.45-10.86 0-8.473-6.854-15.375-15.266-15.375-8.413 0-15.266 6.902-15.266 15.375 0 4.252 1.72 8.112 4.45 10.86.324.327.78.523 1.266.523.975 0 1.754-.785 1.754-1.766 0-.49-.227-.95-.552-1.276-2.11-2.126-3.41-5.07-3.41-8.34 0-6.544 5.262-11.843 11.758-11.843 6.496 0 11.758 5.3 11.758 11.843 0 3.27-1.3 6.248-3.443 8.374L25.5 45.732l2.5 2.486 15.233-15.342z"/>
        <path d="M54.017 21.983C54.017 10.01 44.37.263 32.45.263S10.882 10.01 10.882 21.982c0 5.986 2.404 11.45 6.302 15.342.332.341.79.53 1.266.523.942 0 1.754-.785 1.754-1.766 0-.49-.227-.95-.552-1.276a18.163 18.163 0 0 1-5.262-12.822c0-10.01 8.088-18.188 18.06-18.188 9.97 0 18.06 8.178 18.06 18.188 0 5.037-2.015 9.584-5.295 12.856L29.95 50.212l2.5 2.486 15.266-15.375a21.71 21.71 0 0 0 6.3-15.342l.001.002z"/>
        <g>
            <path d="M0 65.864l1.515-7.972h1.12l2.205 5.125 2.307-5.125h1.12l1.383 7.972H8.034l-.757-4.872-2.24 5H4.61l-2.14-4.938-.856 4.81H0zm13.337-5.252c.428 0 .823.064 1.186.19.362.127.69.285.988.538a2.9 2.9 0 0 1 .626.886c.165.348.264.696.264 1.107 0 .41-.1.79-.264 1.14-.164.315-.362.632-.658.853-.264.253-.593.41-.955.538-.363.127-.758.19-1.186.19-.428 0-.823-.063-1.185-.19-.363-.127-.692-.285-.955-.538a2.873 2.873 0 0 1-.66-.854c-.164-.348-.23-.728-.23-1.14 0-.41.066-.758.23-1.106.166-.348.396-.633.66-.886.263-.253.592-.41.955-.538.362-.126.757-.19 1.185-.19h-.001zm0 4.145c.428 0 .79-.127 1.087-.412.263-.253.428-.6.428-1.012 0-.41-.165-.728-.428-1.012-.296-.284-.66-.41-1.087-.442-.428 0-.79.158-1.054.443a1.31 1.31 0 0 0-.428 1.013c0 .41.132.76.428 1.044.264.253.626.41 1.054.38v-.002zm8.233-3.827v1.39a2.864 2.864 0 0 0-.527-.316c-.23-.063-.428-.126-.69-.126-.463 0-.825.158-1.088.443-.297.285-.395.602-.395 1.013 0 .41.13.76.428 1.044.296.253.658.38 1.12.38.197 0 .395-.032.625-.095.198-.063.362-.19.527-.348v1.423a3.98 3.98 0 0 1-.66.222c-.23.062-.46.094-.69.094-.392-.025-.78-.1-1.153-.222a2.905 2.905 0 0 1-.922-.537c-.263-.222-.46-.507-.626-.855a2.852 2.852 0 0 1-.198-1.075c0-.443.066-.854.23-1.202.165-.348.396-.633.692-.886.263-.222.56-.38.89-.506a3.44 3.44 0 0 1 1.02-.158c.263 0 .527.032.757.095.232.032.462.127.66.222zm1.35-.16h1.482v1.994l2.01-1.993h1.843L25.85 63.05l2.537 2.816h-1.91l-1.844-2.088-.23.22v1.868H22.92V60.77zm8.496-.158c.43 0 .824.064 1.186.19.362.127.692.285.988.538.263.253.46.538.626.886.164.348.263.696.263 1.107 0 .41-.1.79-.264 1.14-.165.315-.363.632-.626.853-.296.253-.626.41-.988.538-.362.127-.757.19-1.186.19-.428 0-.823-.063-1.185-.19a2.835 2.835 0 0 1-.954-.538 2.873 2.873 0 0 1-.66-.854 2.646 2.646 0 0 1-.23-1.14c0-.41.067-.758.23-1.106.166-.348.396-.633.66-.886a2.86 2.86 0 0 1 .955-.538c.363-.126.758-.19 1.186-.19h-.001zm0 4.145c.43 0 .79-.127 1.087-.412.264-.253.428-.6.428-1.012 0-.41-.163-.728-.427-1.012-.296-.284-.658-.41-1.087-.442-.428 0-.79.158-1.053.443a1.31 1.31 0 0 0-.428 1.013c0 .41.13.76.428 1.044.263.253.625.41 1.053.38l-.001-.002zm4.117-3.987h2.338c.33 0 .56.032.758.095.198.032.363.127.527.222.132.126.264.253.363.443.098.158.13.348.13.57 0 .22-.065.41-.196.6-.132.19-.297.348-.527.443.13.032.23.064.362.127.132.063.23.126.33.19.254.25.396.593.394.95 0 .252-.03.473-.13.663-.1.19-.264.348-.428.475-.132.126-.33.19-.527.253-.198.064-.428.064-.66.064h-2.732V60.77h-.002zm1.482 2.025h.922a.726.726 0 0 0 .164-.095c.067-.03.133-.063.166-.126s.033-.127.033-.222c0-.063 0-.126-.034-.19-.033-.063-.066-.126-.132-.158a.257.257 0 0 0-.164-.063c-.033 0-.132-.03-.264-.03h-.69v.885l-.001-.001zm0 1.962h.724c.13 0 .23-.032.33-.032.064-.032.163-.063.23-.095.032-.063.098-.095.13-.19.034-.063.034-.158.034-.22 0-.096 0-.16-.033-.223-.032-.063-.098-.094-.13-.158a.49.49 0 0 0-.23-.064c-.1-.032-.2-.032-.298-.063h-.757v1.045zm8.101-3.827v1.39c-.165-.126-.362-.22-.56-.316a2.205 2.205 0 0 0-.66-.126c-.493 0-.855.158-1.118.443a1.405 1.405 0 0 0-.395 1.013c0 .41.164.76.428 1.044.297.253.66.38 1.12.38.23 0 .428-.032.626-.095s.395-.19.56-.348v1.423a5.07 5.07 0 0 1-.66.222c-.23.062-.46.094-.723.094-.392-.025-.78-.1-1.153-.222a2.433 2.433 0 0 1-.89-.537 2.098 2.098 0 0 1-.625-.855c-.164-.316-.23-.696-.23-1.075 0-.443.1-.854.263-1.202a2.52 2.52 0 0 1 .66-.886c.262-.222.56-.38.888-.506a3.66 3.66 0 0 1 1.02-.158c.264 0 .528.032.758.095.23.032.46.127.692.222h-.001zm1.251-.16h1.482v1.994l1.975-1.993h1.877l-2.403 2.279 2.536 2.816h-1.91l-1.844-2.09-.23.22v1.868h-1.483V60.77zm6.191 0h1.515v3.164l2.437-3.164h1.515v5.094H56.51v-3.132l-2.437 3.132h-1.515V60.77zm6.982 0h1.482v3.164l2.47-3.163h1.48v5.094h-1.48v-3.133l-2.47 3.132H59.54V60.77zm3.754-2.53l.955.443c-.133.38-.396.696-.76.917-.36.19-.79.285-1.25.285a2.45 2.45 0 0 1-1.25-.317 1.573 1.573 0 0 1-.76-.885l.99-.443c.032.22.164.38.36.537.2.127.397.19.66.19.264 0 .494-.063.692-.19.164-.158.296-.316.362-.537h.001zM10.242 71.766H8.398v6.516h-1.58v-6.515H4.972v-1.331h5.27v1.33zm1.515 5.852v3.385h-1.482V73.19h1.482v.665c.197-.254.428-.475.724-.602.297-.158.626-.22 1.02-.22.76 0 1.384.252 1.878.79.494.506.725 1.14.725 1.898 0 .79-.232 1.455-.726 1.962-.494.506-1.152.76-1.91.76-.362 0-.69-.064-.955-.19a1.792 1.792 0 0 1-.758-.634l.002-.001zm1.318-3.322c-.43 0-.79.16-1.055.412-.263.284-.428.632-.395 1.044 0 .41.132.76.395 1.012.297.285.626.41 1.054.41.427 0 .79-.125 1.053-.41.296-.253.428-.6.428-1.012 0-.412-.13-.76-.427-1.013a1.395 1.395 0 0 0-1.054-.443h.001zm8.265-.442v-.665h1.482v5.093H21.34v-.664c-.198.285-.428.506-.725.633a2.08 2.08 0 0 1-.922.19c-.79 0-1.45-.254-1.943-.76a2.75 2.75 0 0 1-.757-1.93c0-.79.23-1.424.724-1.93.494-.538 1.12-.79 1.91-.79.363 0 .725.062.988.22.297.127.527.348.725.602v.001zm-1.317.442c-.46 0-.79.16-1.087.412a1.48 1.48 0 0 0-.394 1.044c0 .41.13.76.395 1.012.297.285.627.41 1.088.41.428 0 .757-.125 1.02-.41.297-.253.43-.6.43-1.012 0-.412-.133-.76-.397-1.044-.295-.253-.624-.412-1.052-.412h-.003zm4.182 3.986V73.19h1.515v1.802h2.075v-1.803h1.514v5.093h-1.514v-2.055H25.72v2.055h-1.515zm10.505-4.935v1.392a1.947 1.947 0 0 0-.56-.316c-.197-.094-.395-.126-.658-.126-.462 0-.857.16-1.12.443-.264.253-.395.6-.362.98 0 .444.13.792.428 1.045.296.285.658.41 1.12.41.197 0 .395-.03.592-.094.198-.094.395-.19.56-.348v1.392c-.198.127-.428.19-.66.254-.23.063-.46.063-.69.063-.428 0-.79-.064-1.153-.19a2.905 2.905 0 0 1-.922-.54c-.263-.22-.46-.505-.626-.853a2.903 2.903 0 0 1-.197-1.107c0-.412.066-.823.23-1.17a2.62 2.62 0 0 1 .692-.887c.262-.22.526-.38.888-.506a3.44 3.44 0 0 1 1.02-.158c.264 0 .528.03.758.062.23.064.46.127.66.253v.001zm1.285-.158h5.038v5.093h-1.515v-3.86h-2.043v3.86h-1.48v-5.093zm9.12-.157c.43 0 .792.062 1.154.19.395.125.69.284.988.537.263.22.494.537.658.885.165.317.23.696.23 1.108 0 .41-.065.79-.23 1.107a3.013 3.013 0 0 1-.658.886c-.297.22-.593.41-.988.538-.33.127-.725.16-1.153.16-.427 0-.822-.033-1.184-.16a3.075 3.075 0 0 1-.955-.537 2.532 2.532 0 0 1-.658-.886 2.402 2.402 0 0 1-.263-1.107c0-.412.097-.79.262-1.108.165-.348.362-.664.66-.885.262-.253.59-.412.954-.538.362-.128.757-.19 1.185-.19h-.002zm0 4.143c.43 0 .792-.126 1.055-.41.296-.286.428-.602.428-1.013 0-.412-.132-.728-.428-1.013a1.395 1.395 0 0 0-1.054-.443c-.427 0-.79.16-1.085.443a1.38 1.38 0 0 0-.43 1.013c0 .41.166.727.43 1.012.296.285.658.443 1.086.41l-.002.001zm5.6.443v3.385H49.2V73.19h1.515v.665c.164-.254.428-.475.69-.602.297-.158.66-.22 1.022-.22.79 0 1.416.252 1.91.79.46.506.724 1.14.724 1.93 0 .76-.263 1.423-.757 1.93-.495.506-1.12.76-1.91.76-.33 0-.66-.064-.956-.19-.296-.128-.527-.35-.724-.634l.001-.001zm1.317-3.322c-.428 0-.79.16-1.054.412-.296.284-.428.632-.428 1.044 0 .41.132.76.428 1.012.263.285.626.41 1.054.41.428 0 .79-.125 1.054-.41a1.4 1.4 0 0 0 .43-1.044c0-.38-.133-.728-.43-.98a1.395 1.395 0 0 0-1.053-.444h-.001zm7.969.126h-1.45v3.86h-1.514v-3.86h-1.482V73.19h4.446v1.232z"/>
        </g>
    </g>
</svg>
