<svg xmlns="http://www.w3.org/2000/svg" width="35" height="35" viewBox="0 0 35 35">
    <path fill="#D9232E" fill-rule="evenodd" d="M17.455 0C7.815 0 0 7.815 0 17.455c0 9.64 7.815 17.456 17.455 17.456 9.64 0 17.456-7.814 17.456-17.455C34.91 7.815 27.096 0 17.456 0h-.001zm8.855 19.343c.813.795 1.674 1.543 2.404 2.42.324.387.63.788.86 1.24.332.643.033 1.348-.543 1.386h-3.575c-.923.075-1.658-.297-2.278-.93-.494-.502-.953-1.04-1.43-1.56a3.344 3.344 0 0 0-.644-.573c-.487-.317-.91-.22-1.19.29-.285.518-.35 1.092-.377 1.67-.04.842-.293 1.062-1.14 1.102-1.807.084-3.522-.19-5.117-1.102-1.407-.804-2.496-1.94-3.444-3.223-1.847-2.505-3.262-5.253-4.533-8.08-.286-.637-.077-.978.626-.99a99.51 99.51 0 0 1 3.5-.002c.475.007.79.28.972.727.63 1.552 1.404 3.028 2.373 4.397.258.365.52.73.897.986.414.284.73.19.925-.272a3 3 0 0 0 .206-.922c.093-1.08.104-2.158-.057-3.232-.1-.673-.478-1.107-1.148-1.234-.342-.065-.292-.19-.126-.386.29-.337.56-.546 1.098-.546h4.04c.637.124.78.41.867 1.05l.003 4.49c-.007.25.125.985.57 1.148.358.118.594-.17.807-.395.97-1.028 1.66-2.242 2.278-3.498.272-.554.508-1.127.736-1.7.17-.426.436-.635.915-.628l3.89.005c.115 0 .232 0 .345.02.656.113.836.395.633 1.035-.32 1.005-.94 1.842-1.546 2.68-.65.9-1.343 1.767-1.987 2.67-.59.824-.545 1.24.19 1.956v.001z"/>
</svg>
